HIERARCHY
ROOT Hips
{
  OFFSET 0.0 0.0 0.0
  CHANNELS 6 XPOSITION YPOSITION ZPOSITION ZROTATION XROTATION YROTATION 
  JOINT LeftUpLeg
  {
    OFFSET 0.089458 -0.0866707 0.00101652
    CHANNELS 3 ZROTATION XROTATION YROTATION 
    JOINT LeftLeg
    {
      OFFSET 0.0 -0.444227 0.013727
      CHANNELS 3 ZROTATION XROTATION YROTATION 
      JOINT LeftFoot
      {
        OFFSET -0.00253549 -0.420924 -0.0146059
        CHANNELS 3 ZROTATION XROTATION YROTATION 
        End Site
        {
          OFFSET -0.0004 -0.0441509 0.084991
        }
      }
    }
  }
  JOINT Spine
  {
    OFFSET 0.0 0.118905 0.0
    CHANNELS 3 ZROTATION XROTATION YROTATION 
    JOINT Spine1
    {
      OFFSET 0.0 0.256574 0.00127663
      CHANNELS 3 ZROTATION XROTATION YROTATION 
      End Site
      {
        OFFSET -0.0029 0.2150836 0.02525291
      }
      JOINT RightArm
      {
        OFFSET -0.162727 -0.05365632 0.00102123
        CHANNELS 3 ZROTATION XROTATION YROTATION 
        JOINT RightForeArm
        {
          OFFSET -0.26364 0.00099144 -0.0142434
          CHANNELS 3 ZROTATION XROTATION YROTATION 
          End Site
          {
            OFFSET -0.220324 0.00085362 0.0102216
          }
        }
      }
      JOINT LeftArm
      {
        OFFSET 0.162727 -0.0536563199 0.00102123
        CHANNELS 3 ZROTATION XROTATION YROTATION 
        JOINT LeftForeArm
        {
          OFFSET 0.262597 0.00099144 -0.0142434
          CHANNELS 3 ZROTATION XROTATION YROTATION 
          End Site
          {
            OFFSET 0.220902 0.00085362 0.0102216
          }
        }
      }
    }
  }
  JOINT RightUpLeg
  {
    OFFSET -0.089458 -0.0866707 0.00101652
    CHANNELS 3 ZROTATION XROTATION YROTATION 
    JOINT RightLeg
    {
      OFFSET 0.0 -0.444227 0.013727
      CHANNELS 3 ZROTATION XROTATION YROTATION 
      JOINT RightFoot
      {
        OFFSET 0.00253549 -0.420924 -0.0146059
        CHANNELS 3 ZROTATION XROTATION YROTATION 
        End Site
        {
          OFFSET 0.0004 -0.0441509 0.084991
        }
      }
    }
  }
}
MOTION
Frames: 14
Frame Time: 0.033333
1.78798 1.02980061347 0.0836677 -3.23300003419 0.568657004303 -92.379701883 -1.76745007924 2.67081997021 1.69876996581 0.143959003342 8.54788014721 19.0232004046 -1.3524499197 -12.72829999 0.0089633601342 1.43304006877 5.25051027585 0.836221981075 -1.67296999344 -1.21618999364 1.25000999548 78.5850488541 -11.9173063799 5.54667496222 6.75628993829 40.7445987389 10.0748005258 -73.3047798709 3.50311075053 1.69757937846 -2.23560992125 27.8197002914 -19.6184992021 0.106691997127 1.78883999056 -3.40007008982 0.0441629993223 9.74554015779 -11.1674002741 2.69092996811 -12.5062001675 -0.0880202009368 
1.78815 1.02980061347 0.0838016 -3.24484016711 0.593960027053 -92.3380992008 -1.74495004873 2.64196007309 1.71297996094 0.147674999777 8.60637986367 18.9671006459 -1.33493005759 -12.7466996659 0.0089640104696 1.4955000143 5.29758991602 0.822589990709 -1.73539995016 -1.21922003631 1.24678988145 78.6483578775 -11.8140492876 5.53260093055 6.69634990568 40.3136001419 10.2349001599 -73.3738330834 4.17840749834 1.40434804489 -1.96988013093 27.1303002701 -20.1711007795 0.120198002519 1.81625999843 -3.39038018582 0.0613736986537 9.7022999377 -11.1948994695 2.70447017781 -12.4776004579 -0.0880104025502 
1.78835 1.02980061347 0.0840564 -3.2891399203 0.609946031444 -92.2825970836 -1.74985999425 2.65066984494 1.70549001818 0.166101996384 8.6538693152 18.9177986329 -1.29902994299 -12.763699153 0.00896460994543 1.57508004242 5.40470990721 0.789176011598 -1.82857995214 -1.25769000959 1.23051001884 78.7556191682 -11.6621800314 5.51940799328 6.61683967355 39.7788987827 10.4428000192 -73.4956563375 5.09536124819 0.895720719431 -1.4517700483 26.293499644 -21.1432996607 0.123658000262 1.87045989737 -3.38762996747 0.0619555987544 9.67339969978 -11.2309005428 2.72985991195 -12.4579995225 -0.0874791018782 
1.78857 1.02980061347 0.0844159 -3.32807989597 0.598387003491 -92.2912987446 -1.79615021396 2.67617014276 1.6717199621 0.178324993429 8.65760030603 18.9632996456 -1.29011003609 -12.7574999025 0.00896438983191 1.66446000462 5.59404018968 0.751898973542 -1.95432010623 -1.43711000774 1.21684003555 78.842949967 -11.4776291738 5.50591965033 6.54791025822 39.5914032598 10.5799006989 -73.5848039665 5.86076249187 0.538184488847 -0.895118008597 25.6938995349 -22.2211018042 0.101408999216 1.87460005922 -3.38704000988 0.0257423993474 9.71900999551 -11.2275998539 2.77487000481 -12.4700001649 -0.0856734973484 
1.78892 1.02980061347 0.0848835 -3.32522999954 0.590502990837 -92.3900974309 -1.83646006945 2.64340999418 1.65066995941 0.165439001127 8.67889000568 19.0896000886 -1.31772993372 -12.7511999068 0.00896417055216 1.77269993339 5.78012997428 0.752438985374 -2.06528997623 -1.62622001661 1.23823005359 78.8804272149 -11.3473561219 5.52523926729 6.49220024714 39.6588991892 10.6483007745 -73.6255528751 6.39972076644 0.277505383294 -0.505076000619 25.3742996157 -23.1227994728 0.0740670916279 1.7972699381 -3.37206994276 -0.0160888991237 9.80234001093 -11.1598998726 2.79807002298 -12.4858999915 -0.0844446969579 
1.78929 1.02980061347 0.0854003 -3.30764994639 0.612256983261 -92.4922019288 -1.84398992613 2.58134000977 1.65462997502 0.14855299925 8.72707016008 19.1888000486 -1.32008997752 -12.7648995587 0.00896465997123 1.86074011129 5.85182988509 0.788543045161 -2.0744900276 -1.61092007271 1.27824002109 78.8699428746 -11.3572744104 5.59854640699 6.49148008907 39.642100339 10.6492996897 -73.6500732542 6.72171722826 -0.192336939749 -0.353549000934 25.3321009994 -23.5210012089 0.0630131975185 1.72848000804 -3.35724010797 -0.0261353986939 9.83007997047 -11.0730002296 2.76949016362 -12.4688996506 -0.0834053009148 
1.78942 1.02980061347 0.085883 -3.32325991685 0.644030009424 -92.4983969104 -1.84330007702 2.59394000124 1.66140989827 0.148572009054 8.7224205088 19.1833990765 -1.24982003084 -12.7760003237 0.00896505017246 1.897860055 5.83980021442 0.790417985449 -2.01244992526 -1.46220006733 1.27201003479 78.8311200793 -11.4143081975 5.67156369054 6.60504991327 39.4452986833 10.5440994086 -73.6738696333 6.85036725637 -0.835173547038 -0.367750031436 25.4826998404 -23.3371000731 0.0576252988413 1.76710003204 -3.37384002898 -0.00861751010382 9.76477994691 -11.0394998593 2.74341997189 -12.419799982 -0.0825152018679 
1.78924 1.02980061347 0.0863029 -3.36322015203 0.656401989971 -92.4384005287 -1.85226000455 2.68542995829 1.67259006417 0.139438005081 8.64360012578 19.1112005619 -1.15385000331 -12.7660999644 0.00952293038557 1.91638993133 5.84068984656 0.717343018819 -2.00686987415 -1.4120599688 1.19863000417 78.7919011331 -11.3757953221 5.69723709097 6.81279993527 39.2758997466 10.3369004975 -73.6431474424 6.80698616363 -1.27780438309 -0.469255980651 25.7300995375 -22.9106999009 0.0425033000395 1.87393987875 -3.40850003736 -0.000365098994019 9.67147017134 -11.0676001113 2.7811599687 -12.3780999696 -0.0817467989162 
1.78902 1.02980061347 0.0866887 -3.37656015181 0.66044300736 -92.4193989425 -1.84933006684 2.75760990333 1.70951001139 0.0922194065746 8.55430991654 19.0621000395 -1.09809004647 -12.7467995574 0.0118822996727 1.95727010762 5.85030034961 0.627120008504 -2.06727009076 -1.47195998076 1.11796995238 78.7664859992 -11.3365396636 5.6947577323 7.00014988977 39.3306983543 10.112899321 -73.5155526785 7.01720743345 -1.39567786679 -0.629582985391 25.6979003182 -22.6540999391 0.033702101036 1.94173996499 -3.41142997507 -0.022291299527 9.59824029815 -11.0931996603 2.85528993275 -12.3528999866 -0.0810623059056 
1.78896 1.02979061347 0.0870602 -3.35017000841 0.667852055062 -92.4702975122 -1.83813005071 2.74793003117 1.75221000621 0.0330595996816 8.52947961758 19.0770991349 -1.07279999041 -12.7472998688 0.0135914002663 1.97217998369 5.82124984752 0.599718036606 -2.04852997266 -1.49049999566 1.08622995659 78.7346778082 -11.5006341047 5.69491994929 7.07214008362 39.6182015071 9.95561030968 -73.3543260632 7.692375048 -1.40878083766 -0.84021700141 25.2564003053 -22.601399907 0.0300306008827 1.91502005151 -3.38272994707 -0.0553992007856 9.58955058998 -11.0559998887 2.91597979207 -12.3439003586 -0.0804208017322 
1.78898 1.02977061347 0.0873977 -3.32627992768 0.659945951016 -92.5281970258 -1.85965005579 2.71787997359 1.75382000986 0.00416716994952 8.53980942493 19.1349986485 -1.02972006632 -12.760100497 0.0150860002364 1.88556998336 5.80511011051 0.629494993344 -1.87667003343 -1.47270009579 1.08564992412 78.6670930864 -11.8075717069 5.67005123052 7.05559010838 40.0171016301 9.86204952465 -73.2637987359 8.34137962294 -1.44444957961 -1.06843998184 24.8440003134 -22.4973009939 -0.00542757997522 1.84755998063 -3.38890998761 -0.0668823996317 9.6537697361 -10.9575999147 2.95672998132 -12.3530997697 -0.0797822991067 
1.78891 1.02975061347 0.0876737 -3.3349000533 0.627251009398 -92.5496028386 -1.91837986426 2.74066996697 1.71716003671 0.00122550004257 8.51799038563 19.1941993131 -0.980930957865 -12.7629000208 0.0167071996638 1.72748002566 5.87423973576 0.647736027379 -1.66118001971 -1.53677004497 1.06577001821 78.5830339483 -12.0353252185 5.61399714866 7.05104034862 40.3835993356 9.7702099473 -73.2592225092 8.53158587717 -1.38342087888 -1.27724996383 24.7746995065 -22.1998991895 -0.0802510942097 1.81700000674 -3.45800994422 -0.049535099852 9.73742930815 -10.8523996335 2.97406009223 -12.3814006585 -0.079106497245 
1.78876 1.02971061347 0.0878915 -3.34546998448 0.599756990028 -92.5459008761 -1.9643299619 2.78008997688 1.68717006344 -0.00147311993398 8.4743301089 19.2234000794 -0.970404035528 -12.7644999926 0.0183416008996 1.62079994134 5.96982994074 0.623123013818 -1.53959005933 -1.65157997539 1.01864000539 78.5283651142 -12.1348803483 5.57312529667 7.09674029058 40.6053994836 9.66374010474 -73.2507530746 8.36063051111 -1.20346684532 -1.491369991 24.9705005395 -21.76430046 -0.142447997411 1.81958011069 -3.5280099917 -0.0237330997669 9.77814918844 -10.7983002665 2.96329998297 -12.4150999581 -0.0783608060063 
1.78864 1.02970061347 0.0880793 -3.31546005426 0.598048962488 -92.5354028753 -1.97749984728 2.76182989302 1.67051005812 -0.000475477976577 8.45821000869 19.230699844 -0.982205962084 -12.7640995728 0.0198751000977 1.62015993127 5.98061993208 0.59182201776 -1.52449000518 -1.68050006356 0.98370604238 78.5078472259 -12.21622534 5.56500292109 7.14124025368 40.664699186 9.59135034482 -73.1783189184 8.10098684623 -1.07254983473 -1.76807002563 25.26370007 -21.2406998658 -0.1617259929 1.79169991883 -3.54721989875 -0.0075553698309 9.7853294248 -10.7966994409 2.9614701326 -12.4321002989 -0.0777500977151 
